# xmcd
#
# Track frame offsets: 
#        150
#        19752
#        36267
#        52317
#        70845
#        92680
#        106860
#        125637
#        145157
#        162355
#        180447
#        197440
#
# Disc length: 2844 seconds
#
# Revision: 13
# Processed by: cddbd v1.5.2PL0 Copyright (c) Steve Scherf et al.
# Submitted via: ExactAudioCopyFreeDBPlugin 1.0
#
DISCID=a30b1a0c
DTITLE=Zezé Di Camargo and Luciano - Saudade Bandida
DYEAR=1993
DGENRE=Sertanejo
TTITLE0=Saudade Bandida
TTITLE1=Fazer Amor
TTITLE2=Andorinha Machucada
TTITLE3=Quatro Estações
TTITLE4=Tudo de novo
TTITLE5=Vá embora
TTITLE6=Faz mais uma vez comigo
TTITLE7=Melhor que antes
TTITLE8=Eu só penso em voçê - Always on my mind
TTITLE9=Olhos de lua
TTITLE10=Mais do que eu
TTITLE11=Pedaço de mim
EXTD=performed by Guido Schiefen YEAR: 1998 ID3G: 2
EXTT0=
EXTT1=
EXTT2=
EXTT3=
EXTT4=
EXTT5=
EXTT6=
EXTT7=
EXTT8=
EXTT9=
EXTT10=
EXTT11=
PLAYORDER=
